<?xml version="1.0" encoding="UTF-8"?><svg id="Ebene_2" xmlns="http://www.w3.org/2000/svg" xmlns:xlink="http://www.w3.org/1999/xlink" viewBox="0 0 598.96 571.22"><defs><clipPath id="clippath"><rect x="478.46" y="234.12" width="92.66" height="52.12" fill="none"/></clipPath></defs><g id="Rive_-_Adressierungsarten"><g><g><path d="M573.56,290.85l-97.6-.08c-.71,0-1.29-.58-1.29-1.29l.05-56.02c0-2.18,1.77-3.95,3.95-3.94l92.29,.07c2.18,0,3.95,1.77,3.94,3.95l-.05,56.02c0,.71-.58,1.29-1.29,1.29" fill="#535252"/><path d="M595.85,312.92l-142.11-.11c-1.72,0-3.1-1.39-3.1-3.11v-.11l148.32,.12v.11c0,1.72-1.39,3.1-3.11,3.1Z" fill="#858585"/><path d="M595.53,310.54l-141.48-.11c-2.57,0-4-.52-3.19-1.15l22.51-17.61c.81-.63,2.85-1.15,4.56-1.15l94.09,.07c1.71,0,3.74,.52,4.54,1.15l22.17,17.65c.8,.64-.64,1.15-3.21,1.15Z" fill="#d1d0d1"/><polygon points="551.97 309.19 497.62 309.15 501.29 302.1 548.45 302.14 551.97 309.19" fill="#b3b3b3"/><path d="M483.99,293.09h-4.34c-.26,0-.38-.08-.29-.16l1.66-1.51c.1-.09,.37-.16,.62-.16h4.15c.24,0,.37,.08,.29,.16l-1.47,1.51c-.09,.09-.36,.16-.62,.16Z" fill="#858585"/><path d="M490.14,293.1h-4.34c-.26,0-.39-.08-.31-.16l1.44-1.51c.08-.09,.35-.16,.59-.16h4.15c.24,0,.38,.08,.31,.16l-1.25,1.51c-.07,.09-.34,.16-.59,.16Z" fill="#858585"/><path d="M496.29,293.1h-4.34c-.25,0-.4-.08-.33-.16l1.22-1.51c.07-.09,.33-.16,.57-.16h4.15c.24,0,.39,.08,.33,.16l-1.03,1.51c-.06,.09-.32,.16-.57,.16Z" fill="#858585"/><path d="M502.44,293.1h-4.34c-.25,0-.41-.08-.36-.16l1-1.51c.06-.09,.3-.16,.55-.16h4.15c.24,0,.4,.08,.36,.16l-.81,1.51c-.05,.09-.29,.16-.55,.16Z" fill="#858585"/><path d="M508.59,293.11h-4.34c-.25,0-.42-.08-.38-.16l.78-1.51c.05-.09,.28-.16,.52-.16h4.15c.24,0,.41,.08,.38,.16l-.59,1.51c-.03,.09-.27,.16-.52,.16Z" fill="#858585"/><path d="M514.76,293.11h-4.34c-.26,0-.44-.08-.4-.16l.55-1.51c.03-.09,.26-.16,.5-.16h4.15c.24,0,.42,.08,.4,.16l-.36,1.51c-.02,.09-.25,.16-.5,.16Z" fill="#858585"/><path d="M520.91,293.12h-4.34c-.25,0-.45-.08-.43-.16l.33-1.51c.02-.09,.23-.16,.48-.16h4.15c.24,0,.43,.08,.43,.16l-.14,1.51c0,.09-.22,.16-.48,.16Z" fill="#858585"/><path d="M527.06,293.12h-4.34c-.25,0-.46-.08-.45-.16l.11-1.51c0-.09,.21-.16,.45-.16h4.15c.24,0,.45,.08,.45,.16l.08,1.51c0,.09-.2,.16-.45,.16Z" fill="#858585"/><path d="M533.21,293.13h-4.34c-.26,0-.47-.08-.47-.16l-.11-1.51c0-.09,.19-.16,.43-.16h4.15c.24,0,.46,.08,.47,.16l.3,1.51c.02,.09-.17,.16-.43,.16Z" fill="#858585"/><path d="M539.36,293.13h-4.34c-.26,0-.48-.08-.5-.16l-.33-1.51c-.02-.09,.16-.16,.41-.16h4.15c.24,0,.47,.08,.5,.16l.52,1.51c.03,.09-.15,.16-.41,.16Z" fill="#858585"/><path d="M545.8,293.14h-4.34c-.25,0-.49-.08-.52-.16l-.56-1.51c-.03-.09,.14-.16,.38-.16h4.15c.24,0,.48,.08,.52,.16l.75,1.51c.04,.09-.13,.16-.38,.16Z" fill="#858585"/><path d="M551.95,293.14h-4.34c-.25,0-.5-.08-.54-.16l-.78-1.51c-.05-.09,.11-.16,.36-.16h4.15c.24,0,.49,.08,.54,.16l.97,1.51c.06,.09-.1,.16-.36,.16Z" fill="#858585"/><path d="M558.1,293.15h-4.34c-.25,0-.51-.08-.57-.16l-1-1.51c-.06-.09,.09-.16,.33-.16h4.15c.24,0,.5,.08,.57,.16l1.19,1.51c.07,.09-.08,.16-.33,.16Z" fill="#858585"/><path d="M564.25,293.15h-4.34c-.25,0-.52-.08-.59-.16l-1.22-1.51c-.07-.09,.07-.16,.31-.16h4.15c.24,0,.51,.08,.59,.16l1.41,1.51c.08,.09-.06,.16-.31,.16Z" fill="#858585"/><path d="M570.4,293.16h-4.34c-.25,0-.53-.08-.62-.16l-1.44-1.51c-.08-.09,.04-.16,.29-.16h4.15c.24,0,.52,.08,.62,.16l1.63,1.51c.1,.09-.03,.16-.29,.16Z" fill="#858585"/><path d="M484.62,295.19h-7.25c-.27,0-.41-.08-.31-.17l1.66-1.51c.1-.09,.38-.16,.64-.16h6.95c.26,0,.4,.08,.32,.17l-1.38,1.51c-.08,.09-.36,.16-.63,.16Z" fill="#858585"/><path d="M491.01,295.2h-4.56c-.27,0-.42-.08-.34-.16l1.35-1.51c.08-.09,.35-.16,.61-.16h4.37c.26,0,.41,.08,.34,.16l-1.16,1.51c-.07,.09-.34,.16-.61,.16Z" fill="#858585"/><path d="M497.47,295.2h-4.56c-.27,0-.43-.08-.36-.16l1.13-1.51c.07-.09,.33-.16,.58-.16h4.37c.26,0,.42,.08,.36,.16l-.94,1.51c-.06,.09-.32,.16-.58,.16Z" fill="#858585"/><path d="M503.92,295.21h-4.56c-.27,0-.44-.08-.39-.16l.91-1.51c.05-.09,.3-.16,.56-.16h4.37c.26,0,.43,.08,.39,.16l-.72,1.51c-.04,.09-.29,.16-.56,.16Z" fill="#858585"/><path d="M510.41,295.21h-4.56c-.27,0-.45-.08-.41-.16l.68-1.51c.04-.09,.28-.16,.54-.16h4.37c.26,0,.44,.08,.41,.16l-.5,1.51c-.03,.09-.27,.16-.54,.16Z" fill="#858585"/><path d="M516.86,295.22h-4.56c-.27,0-.46-.08-.44-.16l.46-1.51c.03-.09,.26-.16,.51-.16h4.37c.26,0,.45,.08,.44,.16l-.27,1.51c-.02,.09-.25,.16-.51,.16Z" fill="#858585"/><path d="M523.32,295.22h-4.56c-.27,0-.47-.08-.46-.16l.24-1.51c.01-.09,.23-.16,.49-.16h4.37c.26,0,.46,.08,.46,.16l-.05,1.51c0,.09-.22,.16-.49,.16Z" fill="#858585"/><path d="M529.77,295.23h-4.56c-.27,0-.48-.08-.48-.16l.02-1.51c0-.09,.21-.16,.47-.16h4.37c.26,0,.47,.08,.48,.16l.17,1.51c0,.09-.2,.16-.47,.16Z" fill="#858585"/><path d="M536.23,295.23h-4.56c-.27,0-.49-.08-.51-.16l-.2-1.51c-.01-.09,.19-.16,.44-.16h4.37c.26,0,.48,.08,.51,.16l.39,1.51c.02,.09-.18,.16-.44,.16Z" fill="#858585"/><path d="M542.99,295.24h-4.56c-.27,0-.51-.08-.53-.16l-.43-1.51c-.03-.09,.16-.16,.42-.16h4.37c.26,0,.49,.08,.53,.16l.62,1.51c.04,.09-.15,.16-.42,.16Z" fill="#858585"/><path d="M549.45,295.24h-4.56c-.27,0-.52-.08-.55-.16l-.65-1.51c-.04-.09,.14-.16,.4-.16h4.37c.26,0,.5,.08,.55,.16l.84,1.51c.05,.09-.13,.16-.4,.16Z" fill="#858585"/><path d="M555.91,295.25h-4.56c-.27,0-.53-.08-.58-.16l-.87-1.51c-.05-.09,.12-.16,.37-.16h4.37c.26,0,.52,.08,.58,.16l1.06,1.51c.06,.09-.1,.16-.37,.16Z" fill="#858585"/><path d="M562.36,295.25h-4.56c-.27,0-.54-.08-.6-.16l-1.09-1.51c-.06-.09,.09-.16,.35-.16h4.37c.26,0,.53,.08,.6,.16l1.28,1.51c.08,.09-.08,.16-.35,.16Z" fill="#858585"/><path d="M572.64,295.26h-8.38c-.27,0-.55-.08-.62-.17l-1.31-1.51c-.08-.09,.07-.16,.32-.16h8.03c.26,0,.54,.08,.64,.17l1.63,1.51c.1,.09-.04,.16-.31,.16Z" fill="#858585"/><path d="M478.75,301.55h-8.29c-.31,0-.48-.08-.38-.17l1.66-1.51c.1-.09,.42-.16,.71-.16h7.99c.3,0,.47,.08,.39,.17l-1.38,1.51c-.08,.09-.39,.16-.7,.16Z" fill="#858585"/><path d="M486.07,301.56h-5.21c-.31,0-.49-.08-.41-.17l1.35-1.51c.08-.09,.38-.16,.68-.16h5.02c.3,0,.48,.08,.41,.17l-1.16,1.51c-.07,.09-.37,.16-.68,.16Z" fill="#858585"/><path d="M493.45,301.57h-5.21c-.31,0-.5-.08-.43-.17l1.13-1.51c.07-.09,.36-.16,.65-.16h5.02c.3,0,.49,.08,.43,.17l-.94,1.51c-.06,.09-.35,.16-.65,.16Z" fill="#858585"/><path d="M500.84,301.57h-5.21c-.31,0-.51-.08-.46-.17l.91-1.51c.05-.09,.34-.16,.63-.16h5.02c.3,0,.5,.08,.46,.17l-.72,1.51c-.04,.09-.32,.16-.63,.16Z" fill="#858585"/><path d="M542.08,301.6l-38.92-.03c-.31,0-.52-.07-.48-.16l.68-1.51c.04-.09,.31-.16,.61-.16l37.5,.03c.3,0,.56,.07,.59,.16l.52,1.51c.03,.09-.19,.16-.5,.16Z" fill="#858585"/><path d="M549.47,301.61h-5.21c-.31,0-.58-.08-.61-.17l-.55-1.51c-.03-.09,.18-.16,.48-.16h5.02c.3,0,.57,.08,.61,.17l.74,1.51c.04,.09-.17,.16-.48,.16Z" fill="#858585"/><path d="M556.86,301.62h-5.21c-.31,0-.59-.08-.64-.17l-.77-1.51c-.05-.09,.16-.16,.45-.16h5.02c.3,0,.58,.08,.64,.17l.96,1.51c.06,.09-.15,.16-.45,.16Z" fill="#858585"/><path d="M564.24,301.62h-5.21c-.31,0-.6-.08-.66-.17l-.99-1.51c-.06-.09,.13-.16,.43-.16h5.02c.3,0,.59,.08,.66,.17l1.18,1.51c.07,.09-.12,.16-.43,.16Z" fill="#858585"/><path d="M571.63,301.63h-5.21c-.31,0-.61-.08-.68-.17l-1.21-1.51c-.07-.09,.11-.16,.41-.16h5.02c.3,0,.6,.08,.68,.17l1.4,1.51c.08,.09-.1,.16-.41,.16Z" fill="#858585"/><path d="M579.03,301.63h-5.21c-.31,0-.62-.08-.71-.17l-1.43-1.51c-.08-.09,.09-.16,.38-.16h5.02c.3,0,.61,.08,.71,.17l1.62,1.51c.1,.09-.08,.16-.38,.16Z" fill="#858585"/><path d="M486.49,297.29h-11.4c-.28,0-.43-.08-.33-.17l1.66-1.51c.1-.09,.39-.16,.66-.16h10.94c.27,0,.43,.08,.35,.17l-1.25,1.51c-.07,.09-.36,.16-.64,.16Z" fill="#858585"/><path d="M493.31,297.3h-4.77c-.28,0-.45-.08-.38-.16l1.22-1.51c.07-.09,.35-.16,.62-.16h4.58c.27,0,.44,.08,.38,.16l-1.03,1.51c-.06,.09-.34,.16-.62,.16Z" fill="#858585"/><path d="M500.07,297.3h-4.77c-.28,0-.46-.08-.4-.17l1-1.51c.06-.09,.32-.16,.59-.16h4.58c.27,0,.45,.08,.4,.16l-.81,1.51c-.05,.09-.31,.16-.59,.16Z" fill="#858585"/><path d="M506.86,297.31h-4.77c-.28,0-.47-.08-.43-.17l.78-1.51c.05-.09,.3-.16,.57-.16h4.58c.27,0,.46,.08,.42,.16l-.59,1.51c-.03,.09-.29,.16-.57,.16Z" fill="#858585"/><path d="M513.62,297.31h-4.77c-.28,0-.48-.08-.45-.17l.56-1.51c.03-.09,.28-.16,.55-.16h4.58c.27,0,.47,.08,.45,.16l-.37,1.51c-.02,.09-.27,.16-.55,.16Z" fill="#858585"/><path d="M520.38,297.32h-4.77c-.28,0-.49-.08-.47-.17l.34-1.51c.02-.09,.25-.16,.52-.16h4.58c.27,0,.48,.08,.47,.16l-.15,1.51c0,.09-.24,.16-.52,.16Z" fill="#858585"/><path d="M527.14,297.32h-4.77c-.28,0-.5-.08-.5-.17l.11-1.51c0-.09,.23-.16,.5-.16h4.58c.27,0,.49,.08,.5,.16l.07,1.51c0,.09-.22,.16-.5,.16Z" fill="#858585"/><path d="M533.91,297.33h-4.77c-.28,0-.51-.08-.52-.17l-.11-1.51c0-.09,.21-.16,.48-.16h4.58c.27,0,.5,.08,.52,.16l.3,1.51c.02,.09-.2,.16-.48,.16Z" fill="#858585"/><path d="M540.67,297.33h-4.77c-.28,0-.52-.08-.54-.17l-.33-1.51c-.02-.09,.18-.16,.45-.16h4.58c.27,0,.51,.08,.54,.16l.52,1.51c.03,.09-.17,.16-.45,.16Z" fill="#858585"/><path d="M547.43,297.34h-4.77c-.28,0-.53-.08-.57-.17l-.55-1.51c-.03-.09,.16-.16,.43-.16h4.58c.27,0,.52,.08,.57,.16l.74,1.51c.04,.09-.15,.16-.43,.16Z" fill="#858585"/><path d="M554.19,297.34h-4.77c-.28,0-.54-.08-.59-.17l-.77-1.51c-.05-.09,.14-.16,.41-.16h4.58c.27,0,.53,.08,.59,.16l.96,1.51c.06,.09-.13,.16-.41,.16Z" fill="#858585"/><path d="M560.95,297.35h-4.77c-.28,0-.55-.08-.61-.17l-.99-1.51c-.06-.09,.11-.16,.38-.16h4.58c.27,0,.54,.08,.61,.16l1.18,1.51c.07,.09-.1,.16-.38,.16Z" fill="#858585"/><path d="M567.72,297.35h-4.77c-.28,0-.57-.08-.64-.17l-1.21-1.51c-.07-.09,.09-.16,.36-.16h4.58c.27,0,.55,.08,.64,.17l1.4,1.51c.08,.09-.08,.16-.36,.16Z" fill="#858585"/><path d="M574.51,297.36h-4.77c-.28,0-.58-.08-.66-.17l-1.43-1.51c-.08-.09,.07-.16,.34-.16h4.58c.27,0,.56,.08,.66,.17l1.62,1.51c.1,.09-.05,.16-.34,.16Z" fill="#858585"/><path d="M488.8,299.43h-16.03c-.29-.01-.45-.08-.35-.17l1.66-1.51c.1-.09,.41-.16,.69-.16h15.42c.28,.01,.46,.08,.39,.17l-1.12,1.51c-.07,.09-.36,.16-.65,.16Z" fill="#858585"/><path d="M495.86,299.44h-4.99c-.29,0-.48-.08-.41-.17l1.09-1.51c.06-.09,.35-.16,.63-.16h4.8c.28,0,.47,.08,.41,.17l-.9,1.51c-.05,.09-.33,.16-.63,.16Z" fill="#858585"/><path d="M502.97,299.44h-4.99c-.29,0-.49-.08-.44-.17l.87-1.51c.05-.09,.32-.16,.6-.16h4.8c.28,0,.48,.08,.44,.17l-.68,1.51c-.04,.09-.31,.16-.6,.16Z" fill="#858585"/><path d="M510.04,299.45h-4.99c-.29,0-.5-.08-.46-.17l.65-1.51c.04-.09,.3-.16,.58-.16h4.8c.28,0,.49,.08,.46,.17l-.46,1.51c-.03,.09-.29,.16-.58,.16Z" fill="#858585"/><path d="M517.11,299.46h-4.99c-.29,0-.51-.08-.49-.17l.43-1.51c.03-.09,.27-.16,.56-.16h4.8c.28,0,.5,.08,.49,.17l-.24,1.51c-.01,.09-.26,.16-.56,.16Z" fill="#858585"/><path d="M524.19,299.46h-4.99c-.29,0-.52-.08-.51-.17l.21-1.51c.01-.09,.25-.16,.53-.16h4.8c.28,0,.51,.08,.51,.17l-.02,1.51c0,.09-.24,.16-.53,.16Z" fill="#858585"/><path d="M531.26,299.47h-4.99c-.29,0-.53-.08-.53-.17v-1.51c-.01-.09,.22-.16,.5-.16h4.8c.28,0,.52,.08,.53,.17l.2,1.51c.01,.09-.22,.16-.51,.16Z" fill="#858585"/><path d="M538.34,299.47h-4.99c-.29,0-.54-.08-.56-.17l-.23-1.51c-.01-.09,.2-.16,.49-.16h4.8c.28,0,.53,.08,.56,.17l.42,1.51c.02,.09-.19,.16-.49,.16Z" fill="#858585"/><path d="M545.41,299.48h-4.99c-.29,0-.55-.08-.58-.17l-.45-1.51c-.03-.09,.18-.16,.46-.16h4.8c.28,0,.54,.08,.58,.17l.64,1.51c.04,.09-.17,.16-.46,.16Z" fill="#858585"/><path d="M552.49,299.48h-4.99c-.29,0-.56-.08-.6-.17l-.67-1.51c-.04-.09,.16-.16,.44-.16h4.8c.28,0,.55,.08,.6,.17l.86,1.51c.05,.09-.15,.16-.44,.16Z" fill="#858585"/><path d="M559.56,299.49h-4.99c-.29,0-.57-.08-.63-.17l-.89-1.51c-.05-.09,.13-.16,.42-.16h4.8c.28,0,.56,.08,.63,.17l1.08,1.51c.06,.09-.12,.16-.42,.16Z" fill="#858585"/><path d="M566.63,299.49h-4.99c-.29,0-.58-.08-.65-.17l-1.12-1.51c-.07-.09,.11-.16,.39-.16h4.8c.28,0,.57,.08,.65,.17l1.3,1.51c.08,.09-.1,.16-.39,.16Z" fill="#858585"/><path d="M576.78,299.5h-8.03c-.29,0-.59-.08-.67-.17l-1.34-1.51c-.08-.09,.09-.16,.37-.16h7.73c.28,0,.59,.08,.68,.17l1.62,1.51c.1,.09-.07,.16-.36,.16Z" fill="#858585"/><path d="M598.82,309.47c-.38,.34-1.58,.57-3.3,.57l-141.48-.11c-1.71,0-2.9-.23-3.28-.57-.57,.59,.83,1.06,3.28,1.06l141.48,.11c2.45,0,3.87-.47,3.3-1.06Z" fill="#d2d1d1"/><g clip-path="url(#clippath)"><rect x="474.16" y="226.99" width="101.25" height="66.37" fill="#efefef"/></g></g><g><g id="Proxyserver"><rect x="234.62" y="221.57" width="53.17" height="82.48" rx="3.52" ry="3.52" transform="translate(4.39 -4.29) rotate(.95)" fill="#676766"/><path d="M233.08,290.95h55.12v11.67c0,.79-.64,1.43-1.43,1.43h-52.26c-.79,0-1.43-.64-1.43-1.43v-11.67h0Z" transform="translate(4.97 -4.28) rotate(.95)" fill="#858585"/><line x1="281.68" y1="233.65" x2="240.25" y2="232.96" fill="none" stroke="#333" stroke-miterlimit="10" stroke-width="2.75"/><line x1="281.52" y1="243.24" x2="240.09" y2="242.56" fill="none" stroke="#333" stroke-miterlimit="10" stroke-width="2.75"/><line x1="281.37" y1="252.84" x2="239.93" y2="252.15" fill="none" stroke="#333" stroke-miterlimit="10" stroke-width="2.75"/><line x1="281.21" y1="262.44" x2="239.77" y2="261.75" fill="none" stroke="#333" stroke-miterlimit="10" stroke-width="2.75"/><line x1="261.22" y1="262.11" x2="251.91" y2="261.95" fill="none" stroke="#54cc4e" stroke-miterlimit="10" stroke-width="2.75"/><line x1="277.24" y1="252.77" x2="267.93" y2="252.62" fill="none" stroke="#54cc4e" stroke-miterlimit="10" stroke-width="2.75"/><line x1="252.23" y1="242.76" x2="242.91" y2="242.6" fill="none" stroke="#54cc4e" stroke-miterlimit="10" stroke-width="2.75"/><line x1="258.62" y1="233.26" x2="249.31" y2="233.11" fill="none" stroke="#54cc4e" stroke-miterlimit="10" stroke-width="2.75"/></g><g><path d="M246.33,332.78c-.03,1.69-.36,3.09-.99,4.21-.63,1.12-1.54,1.96-2.71,2.51-1.18,.55-2.59,.81-4.25,.79l-4.07-.07,.25-14.99,4.52,.08c1.52,.03,2.83,.33,3.92,.9,1.09,.58,1.93,1.41,2.51,2.51,.58,1.1,.86,2.45,.83,4.06Zm-1.84,.03c.02-1.35-.18-2.46-.62-3.34-.43-.88-1.08-1.54-1.94-1.99-.86-.44-1.91-.67-3.16-.69l-2.51-.04-.2,12.01,2.12,.04c2.06,.03,3.62-.45,4.67-1.45,1.05-1,1.6-2.51,1.63-4.53Z" fill="#fff"/><path d="M260.89,340.66l-1.74-.03,.12-7.06-7.87-.13-.12,7.06-1.74-.03,.25-14.99,1.74,.03-.11,6.39,7.87,.13,.11-6.39,1.74,.03-.25,14.99Z" fill="#fff"/><path d="M271.65,327.17c-.83-.01-1.57,.12-2.24,.39-.66,.27-1.23,.67-1.7,1.2s-.83,1.17-1.09,1.93c-.26,.75-.4,1.61-.41,2.56-.02,1.26,.16,2.35,.54,3.29s.95,1.66,1.73,2.18c.77,.52,1.75,.79,2.92,.81,.67,.01,1.3-.04,1.89-.14,.59-.1,1.17-.23,1.73-.4l-.03,1.52c-.55,.2-1.13,.34-1.73,.43-.6,.09-1.32,.13-2.15,.11-1.52-.03-2.79-.36-3.8-1.01-1.01-.65-1.76-1.56-2.25-2.72-.49-1.16-.72-2.53-.7-4.1,.02-1.13,.19-2.17,.53-3.1s.81-1.74,1.43-2.41,1.38-1.19,2.28-1.55c.9-.36,1.92-.53,3.08-.51,.76,.01,1.49,.1,2.19,.26s1.33,.39,1.9,.68l-.72,1.46c-.47-.23-1-.42-1.56-.6-.57-.17-1.18-.26-1.85-.27Z" fill="#fff"/><path d="M282.41,326.02c1.93,.03,3.34,.43,4.22,1.2,.88,.77,1.31,1.86,1.28,3.27-.01,.64-.12,1.24-.34,1.81-.22,.57-.56,1.06-1.03,1.49-.47,.43-1.09,.76-1.85,.99-.76,.24-1.69,.35-2.78,.33l-1.82-.03-.1,5.9-1.74-.03,.25-14.99,3.92,.06Zm-.19,1.48l-2.01-.03-.1,6.11,1.63,.03c.96,.02,1.76-.07,2.4-.27,.64-.2,1.13-.52,1.46-.98,.33-.46,.5-1.07,.51-1.83,.02-1-.29-1.75-.92-2.25-.63-.5-1.62-.76-2.97-.78Z" fill="#fff"/><path d="M239.32,361.52c-.01,.89-.25,1.64-.7,2.26-.45,.62-1.08,1.08-1.87,1.4-.8,.32-1.73,.46-2.81,.45-.57,0-1.1-.05-1.61-.11-.5-.06-.97-.15-1.39-.26-.42-.11-.79-.24-1.11-.4l.03-1.67c.51,.22,1.13,.43,1.87,.62,.74,.19,1.51,.3,2.31,.31,.75,.01,1.39-.08,1.91-.27,.52-.19,.92-.48,1.2-.85,.28-.38,.42-.83,.43-1.36,0-.51-.1-.94-.32-1.29-.22-.35-.59-.67-1.11-.96-.52-.29-1.23-.61-2.12-.94-.63-.24-1.19-.49-1.67-.77-.48-.28-.88-.59-1.2-.94-.32-.35-.56-.75-.72-1.2-.16-.45-.24-.97-.23-1.55,.01-.8,.23-1.48,.64-2.04,.42-.56,.99-.99,1.71-1.29s1.56-.43,2.49-.42c.8,.01,1.54,.1,2.22,.26,.68,.16,1.3,.37,1.86,.64l-.57,1.49c-.54-.23-1.11-.43-1.71-.59-.6-.16-1.23-.25-1.87-.26-.64-.01-1.19,.07-1.63,.25-.44,.18-.79,.44-1.02,.78s-.36,.74-.37,1.21c0,.53,.1,.96,.31,1.32,.22,.35,.57,.67,1.05,.95,.48,.28,1.13,.57,1.93,.88,.88,.34,1.62,.69,2.23,1.06,.61,.37,1.07,.81,1.38,1.34,.31,.52,.46,1.18,.45,1.97Z" fill="#fff"/><path d="M246.57,354.18c.96,.02,1.77,.24,2.45,.68,.68,.43,1.19,1.04,1.54,1.8s.52,1.66,.5,2.68l-.02,1.06-7.76-.13c0,1.32,.31,2.33,.93,3.03,.62,.7,1.51,1.06,2.67,1.08,.71,.01,1.34-.04,1.89-.16,.55-.12,1.12-.3,1.71-.55l-.02,1.5c-.57,.25-1.14,.42-1.7,.53-.56,.11-1.22,.15-1.98,.14-1.08-.02-2.02-.25-2.81-.71-.8-.46-1.41-1.11-1.84-1.97-.43-.86-.64-1.91-.61-3.15,.02-1.21,.24-2.25,.66-3.13,.42-.88,1.01-1.55,1.76-2.02s1.63-.69,2.63-.67Zm-.04,1.39c-.91-.02-1.64,.27-2.19,.86-.55,.58-.88,1.41-1,2.47l5.95,.1c0-.67-.09-1.26-.28-1.77-.19-.51-.49-.92-.9-1.21-.41-.29-.93-.44-1.57-.45Z" fill="#fff"/><path d="M259.14,354.39c.23,0,.46,.02,.71,.05,.25,.03,.46,.06,.65,.11l-.24,1.58c-.18-.05-.39-.09-.61-.12-.23-.03-.44-.05-.64-.05-.45,0-.88,.08-1.28,.25-.4,.17-.76,.43-1.06,.76-.31,.33-.55,.74-.73,1.21-.18,.47-.27,1-.28,1.58l-.1,6.03-1.71-.03,.19-11.24,1.41,.02,.15,2.07h.07c.24-.41,.53-.79,.86-1.13,.33-.34,.72-.61,1.16-.8,.44-.2,.92-.29,1.46-.28Z" fill="#fff"/><path d="M264.9,365.93l-4.08-11.31,1.82,.03,2.36,6.84c.16,.47,.33,.98,.5,1.54,.17,.56,.28,1.02,.35,1.36h.07c.09-.34,.23-.79,.43-1.35,.2-.56,.38-1.07,.55-1.52l2.58-6.76,1.82,.03-4.46,11.17-1.95-.03Z" fill="#fff"/><path d="M277.43,354.69c.96,.02,1.77,.24,2.45,.68,.68,.43,1.19,1.04,1.54,1.8,.35,.77,.52,1.66,.5,2.68l-.02,1.06-7.76-.13c0,1.32,.31,2.33,.93,3.03,.62,.7,1.51,1.06,2.67,1.08,.71,.01,1.34-.04,1.89-.16,.55-.12,1.12-.3,1.71-.55l-.02,1.5c-.57,.24-1.14,.42-1.7,.53-.56,.11-1.22,.15-1.98,.14-1.08-.02-2.02-.25-2.81-.71-.8-.46-1.41-1.11-1.84-1.97-.43-.86-.63-1.91-.61-3.15,.02-1.21,.24-2.25,.66-3.13,.42-.88,1.01-1.55,1.76-2.02,.75-.46,1.63-.69,2.63-.67Zm-.04,1.39c-.91-.01-1.64,.27-2.19,.86-.55,.58-.88,1.41-1,2.47l5.95,.1c0-.67-.09-1.26-.28-1.77-.19-.51-.49-.92-.9-1.21-.41-.29-.93-.44-1.57-.45Z" fill="#fff"/><path d="M290,354.9c.23,0,.46,.02,.71,.05,.25,.03,.46,.06,.65,.11l-.24,1.58c-.18-.05-.39-.09-.61-.12-.22-.03-.44-.05-.63-.05-.45,0-.88,.08-1.28,.25-.4,.17-.76,.43-1.06,.76-.31,.33-.55,.74-.73,1.21-.18,.47-.27,1-.28,1.58l-.1,6.03-1.71-.03,.19-11.24,1.41,.02,.15,2.07h.07c.24-.41,.53-.79,.86-1.13,.33-.34,.72-.61,1.16-.8,.44-.2,.92-.29,1.46-.28Z" fill="#fff"/></g></g><g><g><path d="M13.89,338.62l.25-14.99,1.74,.03-.25,14.99-1.74-.03Z" fill="#fff"/><path d="M23.92,323.79c1.93,.03,3.34,.43,4.22,1.2,.88,.77,1.31,1.86,1.28,3.27-.01,.64-.12,1.24-.34,1.81-.22,.57-.56,1.06-1.03,1.49-.47,.43-1.09,.76-1.85,1-.76,.24-1.69,.35-2.78,.33l-1.82-.03-.1,5.9-1.74-.03,.25-14.99,3.92,.06Zm-.19,1.48l-2.01-.03-.1,6.11,1.63,.03c.96,.02,1.76-.07,2.4-.27,.64-.2,1.13-.52,1.46-.98,.33-.46,.5-1.07,.51-1.83,.02-1-.29-1.75-.92-2.25-.63-.5-1.62-.76-2.97-.78Z" fill="#fff"/><path d="M47.25,339.17l-1.77-4.79-6.01-.1-1.91,4.73-1.76-.03,6.11-14.95,1.57,.03,5.57,15.15-1.8-.03Zm-2.26-6.34l-1.68-4.76c-.04-.12-.1-.33-.19-.61-.09-.28-.18-.57-.27-.88-.09-.3-.17-.55-.22-.73-.07,.28-.15,.56-.23,.83-.08,.28-.16,.53-.24,.77s-.15,.43-.2,.6l-1.86,4.7,4.9,.08Z" fill="#fff"/><path d="M54.86,339.5c-1.42-.02-2.54-.53-3.35-1.51-.81-.98-1.21-2.43-1.17-4.35,.03-1.93,.48-3.39,1.34-4.36,.86-.97,2-1.45,3.41-1.43,.59,0,1.11,.1,1.55,.26,.44,.17,.82,.38,1.14,.65,.32,.27,.58,.57,.79,.91h.12c-.02-.21-.05-.5-.07-.87-.02-.37-.03-.67-.03-.9l.07-4.5,1.7,.03-.26,15.95-1.37-.02-.23-1.6h-.07c-.22,.33-.49,.63-.82,.9-.33,.27-.72,.48-1.17,.63-.45,.15-.98,.23-1.59,.21Zm.29-1.41c1.2,.02,2.06-.31,2.57-.98,.51-.67,.78-1.69,.8-3.03v-.31c.03-1.43-.19-2.53-.65-3.3-.46-.77-1.32-1.17-2.57-1.19-1.05-.02-1.83,.37-2.37,1.17-.53,.79-.81,1.89-.83,3.27-.02,1.38,.22,2.45,.72,3.21,.5,.76,1.28,1.15,2.33,1.17Z" fill="#fff"/><path d="M67.71,339.72c-1.42-.02-2.54-.53-3.35-1.51s-1.21-2.43-1.17-4.35c.03-1.93,.48-3.39,1.34-4.36,.86-.97,2-1.45,3.41-1.43,.59,0,1.11,.1,1.55,.26,.44,.16,.82,.38,1.14,.65,.32,.27,.58,.57,.8,.91h.12c-.02-.21-.05-.5-.07-.87-.02-.37-.03-.67-.03-.9l.07-4.5,1.7,.03-.26,15.95-1.37-.02-.23-1.6h-.07c-.22,.33-.49,.63-.82,.9-.33,.27-.72,.48-1.17,.63-.45,.15-.98,.23-1.59,.22Zm.29-1.41c1.2,.02,2.06-.31,2.57-.98,.51-.67,.78-1.69,.8-3.03v-.31c.03-1.43-.19-2.53-.65-3.3-.46-.77-1.32-1.17-2.57-1.19-1.05-.02-1.83,.37-2.37,1.17-.53,.79-.81,1.89-.83,3.27-.02,1.38,.22,2.45,.72,3.21s1.28,1.15,2.33,1.17Z" fill="#fff"/><path d="M81.85,328.3c.23,0,.46,.02,.71,.05s.46,.06,.65,.11l-.24,1.58c-.18-.05-.39-.09-.61-.12-.23-.03-.44-.05-.64-.05-.45,0-.88,.08-1.28,.25-.4,.17-.76,.43-1.06,.76-.31,.33-.55,.74-.73,1.21-.18,.47-.27,1-.28,1.58l-.1,6.03-1.71-.03,.19-11.24,1.41,.02,.15,2.07h.07c.24-.41,.53-.79,.86-1.13,.33-.34,.72-.61,1.16-.81,.44-.2,.92-.29,1.46-.28Z" fill="#fff"/><path d="M89.65,328.43c.96,.02,1.77,.24,2.45,.68,.68,.43,1.19,1.04,1.54,1.8,.35,.77,.52,1.66,.5,2.68l-.02,1.06-7.76-.13c0,1.32,.31,2.33,.93,3.03,.62,.7,1.51,1.06,2.67,1.08,.71,.01,1.34-.04,1.89-.16s1.12-.3,1.71-.55l-.02,1.5c-.57,.24-1.14,.42-1.7,.53-.56,.11-1.22,.15-1.98,.14-1.08-.02-2.02-.25-2.81-.71-.8-.46-1.41-1.11-1.84-1.97-.43-.86-.64-1.91-.61-3.15,.02-1.21,.24-2.25,.66-3.13,.42-.88,1.01-1.55,1.76-2.02,.75-.47,1.63-.69,2.63-.67Zm-.04,1.39c-.91-.01-1.64,.27-2.19,.86-.55,.58-.89,1.41-1.01,2.47l5.95,.1c0-.67-.09-1.26-.28-1.77-.19-.51-.49-.92-.9-1.21-.41-.29-.93-.44-1.57-.45Z" fill="#fff"/><path d="M104.25,337.04c-.01,.72-.2,1.32-.57,1.8-.37,.48-.89,.84-1.56,1.08-.67,.23-1.47,.34-2.39,.33-.79-.01-1.47-.09-2.04-.22-.57-.13-1.07-.32-1.5-.55l.03-1.57c.45,.23,1,.45,1.63,.64,.63,.2,1.28,.3,1.94,.31,.97,.02,1.68-.13,2.12-.44,.44-.31,.67-.73,.68-1.27,0-.31-.08-.58-.25-.82-.17-.24-.46-.47-.86-.7-.41-.23-.97-.48-1.69-.76-.71-.29-1.33-.57-1.85-.85-.52-.28-.92-.61-1.19-1.01-.28-.39-.41-.9-.4-1.53,.02-.95,.41-1.67,1.19-2.17,.78-.5,1.79-.73,3.04-.71,.68,.01,1.31,.09,1.9,.23,.59,.14,1.14,.33,1.65,.57l-.6,1.35c-.46-.21-.95-.38-1.48-.53-.52-.15-1.06-.22-1.61-.23-.79-.01-1.39,.11-1.82,.36s-.64,.6-.65,1.06c0,.35,.09,.64,.28,.87,.19,.23,.5,.45,.93,.65,.43,.21,.99,.45,1.69,.73,.7,.27,1.3,.55,1.81,.83,.51,.29,.9,.63,1.17,1.02,.27,.4,.4,.9,.39,1.52Z" fill="#fff"/><path d="M114.26,337.21c-.01,.72-.2,1.32-.57,1.8-.37,.48-.89,.84-1.56,1.08-.67,.24-1.47,.35-2.39,.33-.79-.01-1.47-.09-2.04-.22-.57-.13-1.07-.32-1.5-.55l.03-1.57c.45,.23,1,.45,1.63,.64,.63,.19,1.28,.3,1.94,.31,.97,.02,1.68-.13,2.12-.44,.44-.31,.67-.73,.68-1.27,0-.31-.08-.58-.25-.82-.17-.24-.46-.47-.87-.7-.41-.23-.97-.48-1.69-.76-.71-.29-1.33-.57-1.85-.85-.52-.28-.92-.61-1.19-1.01-.28-.39-.41-.9-.4-1.52,.02-.95,.41-1.67,1.19-2.17,.78-.5,1.79-.73,3.04-.71,.68,.01,1.31,.09,1.9,.23,.59,.14,1.14,.33,1.65,.57l-.6,1.35c-.46-.21-.95-.38-1.48-.53-.52-.15-1.06-.22-1.61-.23-.79-.01-1.39,.11-1.82,.36-.42,.25-.64,.61-.65,1.06,0,.35,.09,.64,.28,.87,.19,.23,.5,.45,.93,.65,.43,.21,.99,.45,1.69,.73,.7,.27,1.3,.55,1.81,.83,.51,.29,.9,.63,1.17,1.02s.4,.9,.39,1.52Z" fill="#fff"/><path d="M30.98,356.47c-.03,1.69-.36,3.09-.99,4.21-.63,1.12-1.54,1.96-2.71,2.51-1.17,.55-2.59,.81-4.25,.79l-4.07-.07,.25-14.99,4.52,.08c1.52,.03,2.83,.33,3.92,.9,1.09,.57,1.93,1.41,2.51,2.51,.58,1.1,.86,2.45,.83,4.06Zm-1.84,.03c.02-1.35-.18-2.46-.62-3.34-.43-.88-1.08-1.54-1.94-1.99-.86-.44-1.91-.67-3.16-.69l-2.51-.04-.2,12,2.12,.04c2.06,.03,3.62-.45,4.67-1.45,1.05-1,1.6-2.51,1.63-4.53Z" fill="#fff"/><path d="M38.32,352.8c1.34,.02,2.33,.34,2.97,.95,.64,.61,.95,1.58,.93,2.9l-.13,7.64-1.24-.02-.3-1.67h-.08c-.32,.4-.66,.74-1,1.01-.35,.27-.74,.47-1.19,.61-.45,.13-1,.19-1.65,.18-.68-.01-1.29-.14-1.81-.39-.53-.25-.94-.62-1.23-1.11s-.44-1.11-.43-1.85c.02-1.12,.48-1.97,1.38-2.56,.9-.59,2.26-.89,4.08-.92l1.94-.05v-.69c.03-.97-.17-1.65-.58-2.05-.41-.4-.99-.6-1.75-.61-.59,0-1.15,.07-1.69,.23-.54,.16-1.05,.36-1.53,.58l-.5-1.3c.51-.25,1.09-.46,1.75-.64,.66-.17,1.35-.25,2.08-.24Zm2.18,5.92l-1.71,.04c-1.4,.03-2.39,.24-2.97,.64s-.88,.96-.89,1.7c-.01,.64,.18,1.12,.56,1.43,.38,.31,.9,.48,1.54,.49,1,.02,1.82-.25,2.46-.79s.98-1.37,.99-2.48l.02-1.04Z" fill="#fff"/><path d="M49.24,363.22c.28,0,.57-.01,.86-.06,.29-.04,.53-.1,.72-.16l-.02,1.32c-.2,.09-.48,.16-.83,.21-.35,.05-.7,.08-1.03,.07-.59,0-1.13-.12-1.61-.34-.48-.22-.86-.58-1.15-1.08s-.42-1.2-.4-2.08l.11-6.67-1.6-.03v-.83l1.63-.64,.72-2.43,1.03,.02-.04,2.6,3.29,.05-.02,1.33-3.29-.05-.11,6.61c-.01,.7,.14,1.23,.46,1.58,.32,.35,.75,.54,1.29,.54Z" fill="#fff"/><path d="M57.47,353.12c1.34,.02,2.33,.34,2.97,.95,.64,.61,.95,1.58,.93,2.9l-.13,7.64-1.24-.02-.3-1.67h-.08c-.32,.4-.66,.74-1,1.01-.35,.27-.74,.47-1.19,.61-.45,.13-1,.19-1.65,.18-.68-.01-1.29-.14-1.81-.39-.53-.25-.94-.62-1.23-1.11s-.44-1.11-.43-1.85c.02-1.12,.48-1.97,1.38-2.56,.9-.59,2.26-.89,4.08-.92l1.94-.05v-.69c.03-.97-.17-1.65-.58-2.05-.41-.4-1-.6-1.75-.61-.59,0-1.15,.07-1.69,.23-.54,.16-1.05,.36-1.53,.58l-.5-1.3c.51-.25,1.09-.46,1.75-.64,.66-.17,1.35-.25,2.08-.24Zm2.18,5.92l-1.71,.04c-1.4,.03-2.39,.24-2.97,.64-.58,.39-.88,.96-.89,1.7-.01,.64,.18,1.12,.56,1.43,.38,.31,.9,.48,1.54,.49,1,.02,1.82-.25,2.46-.79s.98-1.37,.99-2.48l.02-1.04Z" fill="#fff"/><path d="M66.71,348.74l-.07,3.99c0,.46-.03,.9-.06,1.33-.03,.43-.06,.76-.07,1h.09c.32-.5,.77-.92,1.35-1.26s1.33-.5,2.23-.49c1.41,.02,2.52,.53,3.34,1.52,.82,.99,1.22,2.44,1.18,4.36-.02,1.26-.23,2.33-.63,3.19-.4,.86-.95,1.51-1.65,1.94s-1.53,.64-2.48,.62c-.89-.01-1.62-.19-2.18-.53-.57-.34-1-.75-1.3-1.24h-.13l-.37,1.5-1.23-.02,.26-15.95,1.7,.03Zm3.18,6c-.81-.01-1.46,.13-1.95,.44-.48,.31-.84,.78-1.05,1.42-.22,.64-.34,1.44-.35,2.42v.09c-.03,1.42,.19,2.5,.65,3.26,.46,.76,1.31,1.15,2.55,1.17,1.05,.02,1.84-.35,2.37-1.11,.54-.76,.82-1.85,.84-3.27,.02-1.45-.22-2.54-.72-3.28s-1.29-1.12-2.34-1.14Z" fill="#fff"/><path d="M81.98,353.53c1.34,.02,2.33,.34,2.97,.95,.64,.61,.95,1.58,.93,2.9l-.13,7.64-1.24-.02-.3-1.67h-.08c-.32,.4-.66,.74-1,1.01-.35,.27-.74,.47-1.19,.61-.45,.13-1,.19-1.65,.18-.68-.01-1.29-.14-1.81-.39-.53-.25-.94-.62-1.23-1.11-.3-.49-.44-1.11-.43-1.85,.02-1.12,.48-1.97,1.38-2.56,.9-.59,2.26-.89,4.08-.92l1.94-.05v-.69c.03-.97-.17-1.65-.58-2.05-.41-.4-1-.6-1.75-.61-.59,0-1.15,.07-1.69,.23-.54,.16-1.05,.36-1.53,.58l-.5-1.3c.51-.25,1.09-.46,1.75-.64,.66-.17,1.35-.25,2.08-.24Zm2.18,5.92l-1.71,.04c-1.4,.03-2.39,.24-2.97,.64-.58,.39-.88,.96-.89,1.7-.01,.64,.18,1.12,.56,1.43,.38,.31,.9,.48,1.54,.49,1,.02,1.82-.25,2.46-.79,.65-.54,.98-1.37,.99-2.48l.02-1.04Z" fill="#fff"/><path d="M96.58,362.12c-.01,.72-.2,1.32-.57,1.8-.37,.48-.89,.84-1.56,1.08-.67,.24-1.47,.35-2.39,.33-.79-.01-1.47-.09-2.04-.22-.57-.13-1.07-.32-1.5-.55l.03-1.57c.45,.23,1,.45,1.63,.64,.63,.19,1.28,.3,1.94,.31,.97,.02,1.68-.13,2.12-.44,.44-.31,.67-.73,.68-1.27,0-.31-.08-.58-.25-.82-.17-.24-.46-.47-.87-.7-.41-.23-.97-.48-1.69-.76-.71-.29-1.33-.57-1.85-.85-.52-.28-.92-.62-1.19-1.01-.28-.39-.41-.9-.4-1.52,.02-.95,.41-1.67,1.19-2.17,.78-.5,1.79-.73,3.04-.71,.68,.01,1.31,.09,1.9,.23,.59,.14,1.14,.33,1.65,.57l-.6,1.35c-.46-.21-.95-.38-1.48-.53-.52-.15-1.06-.22-1.61-.23-.79-.01-1.39,.11-1.82,.36-.42,.25-.64,.6-.65,1.06,0,.35,.09,.64,.28,.87,.19,.23,.5,.45,.93,.65,.43,.21,.99,.45,1.69,.73,.7,.27,1.3,.55,1.81,.83s.9,.63,1.17,1.02c.27,.4,.4,.9,.39,1.52Z" fill="#fff"/><path d="M103.78,353.87c.96,.02,1.77,.24,2.45,.68,.68,.44,1.19,1.04,1.54,1.8,.35,.77,.52,1.66,.5,2.68l-.02,1.06-7.76-.13c0,1.32,.31,2.33,.93,3.03,.62,.7,1.51,1.06,2.67,1.08,.71,.01,1.34-.04,1.89-.16s1.12-.3,1.71-.55l-.02,1.5c-.57,.24-1.14,.42-1.7,.53s-1.22,.15-1.98,.14c-1.08-.02-2.02-.25-2.81-.71-.8-.46-1.41-1.11-1.84-1.97s-.64-1.91-.61-3.15c.02-1.21,.24-2.25,.66-3.13,.42-.88,1.01-1.55,1.76-2.02,.75-.47,1.63-.69,2.63-.67Zm-.04,1.39c-.91-.01-1.64,.27-2.19,.86-.55,.58-.88,1.41-1.01,2.48l5.95,.1c0-.67-.09-1.26-.28-1.77-.19-.51-.49-.92-.9-1.21-.41-.29-.93-.44-1.57-.45Z" fill="#fff"/></g><g><g><ellipse cx="63.44" cy="287.22" rx="36.68" ry="8.16" fill="#314180"/><path d="M26.76,298.22c0,4.51,16.42,8.16,36.68,8.16s36.68-3.65,36.68-8.16v-11.07c0-.29-.36-.4-.53-.17-2.97,3.84-18.02,6.77-36.15,6.77s-33.41-2.97-36.21-6.86c-.15-.21-.47-.1-.47,.15v11.18Z" fill="#6182ff"/></g><g><ellipse cx="63.44" cy="270.12" rx="36.68" ry="8.16" fill="#314180"/><path d="M26.76,281.12c0,4.51,16.42,8.16,36.68,8.16s36.68-3.65,36.68-8.16v-11.07c0-.29-.36-.4-.53-.17-2.97,3.84-18.02,6.77-36.15,6.77s-33.41-2.97-36.21-6.86c-.15-.21-.47-.1-.47,.15v11.18Z" fill="#6182ff"/></g><g><ellipse cx="63.44" cy="253.02" rx="36.68" ry="8.16" fill="#314180"/><path d="M26.76,264.01c0,4.51,16.42,8.16,36.68,8.16s36.68-3.65,36.68-8.16v-11.07c0-.29-.36-.4-.53-.17-2.97,3.84-18.02,6.77-36.15,6.77s-33.41-2.97-36.21-6.86c-.15-.21-.47-.1-.47,.15v11.18Z" fill="#6182ff"/></g><g><ellipse cx="63.44" cy="235.91" rx="36.68" ry="8.16" fill="#314180"/><path d="M26.76,246.91c0,4.51,16.42,8.16,36.68,8.16s36.68-3.65,36.68-8.16v-11.07c0-.29-.36-.4-.53-.17-2.97,3.84-18.02,6.77-36.15,6.77s-33.41-2.97-36.21-6.86c-.15-.21-.47-.1-.47,.15v11.18Z" fill="#6182ff"/></g></g></g><g><line x1="117.42" y1="271.38" x2="205.7" y2="271.38" fill="none" stroke="#b0c1ff" stroke-linecap="round" stroke-miterlimit="10" stroke-width="3"/><polygon points="204.17 276.62 213.24 271.38 204.17 266.15 204.17 276.62" fill="#b0c1ff"/></g><g><line x1="309.64" y1="281.66" x2="448.57" y2="456.18" fill="none" stroke="#b0c1ff" stroke-linecap="round" stroke-miterlimit="10" stroke-width="3"/><polygon points="443.52 458.24 453.27 462.07 451.72 451.72 443.52 458.24" fill="#b0c1ff"/></g><g><line x1="309.64" y1="265.21" x2="445.73" y2="265.21" fill="none" stroke="#b0c1ff" stroke-linecap="round" stroke-miterlimit="10" stroke-width="3"/><polygon points="444.2 270.45 453.27 265.21 444.2 259.98 444.2 270.45" fill="#b0c1ff"/></g><g><line x1="309.64" y1="248.77" x2="448.25" y2="93.53" fill="none" stroke="#b0c1ff" stroke-linecap="round" stroke-miterlimit="10" stroke-width="3"/><polygon points="451.13 98.16 453.27 87.91 443.32 91.19 451.13 98.16" fill="#b0c1ff"/></g><g><polygon points="538.72 87.55 510.88 87.55 512.47 75.57 537.35 75.57 538.72 87.55" fill="#858585"/><polygon points="512.47 75.57 537.35 75.57 537.57 77.49 512.22 77.49 512.47 75.57" fill="#676766"/><path d="M469.9,65.54v7.4c0,1.5,1.23,2.73,2.73,2.73h104.34c1.5,0,2.73-1.23,2.73-2.73v-7.4h-109.8Z" fill="#b3b3b3"/><path d="M579.7,2.73c0-1.5-1.23-2.73-2.73-2.73h-104.34c-1.5,0-2.73,1.23-2.73,2.73v62.81h109.8V2.73Z" fill="#535252"/><rect x="473.77" y="3.64" width="102.07" height="58.26" rx="1.51" ry="1.51" fill="#efefef"/><path d="M473.77,9.03h102.07V4.65c0-.56-.45-1.01-1.01-1.01h-100.04c-.56,0-1.01,.45-1.01,1.01v4.38Z" fill="#6182ff"/><polygon points="510.88 87.55 538.72 87.55 543.62 88.71 505.98 88.74 510.88 87.55" fill="#d1d0d1"/><polygon points="543.36 90.98 506.24 90.98 505.99 88.74 543.62 88.71 543.36 90.98" fill="#858585"/><path d="M526.75,70.93c0,1.08-.87,1.95-1.95,1.95s-1.95-.87-1.95-1.95,.87-1.95,1.95-1.95,1.95,.87,1.95,1.95Z" fill="#1f1f1f"/><g><polygon points="534.91 3.64 476.63 61.92 495.92 61.92 553.89 3.64 534.91 3.64" fill="#fff" opacity=".3"/><polygon points="561.64 3.64 503.36 61.92 513.94 61.92 571.91 3.64 561.64 3.64" fill="#fff" opacity=".3"/></g><g><circle cx="533.61" cy="35.1" r="2.32" fill="#b0c1ff"/><circle cx="525.07" cy="35.1" r="2.32" fill="#819bff"/><circle cx="516.18" cy="35.1" r="2.32" fill="#6182ff"/></g></g><g><polygon points="537.95 567.9 511.02 567.9 512.56 556.31 536.63 556.31 537.95 567.9" fill="#858585"/><polygon points="512.56 556.31 536.63 556.31 536.84 558.17 512.31 558.17 512.56 556.31" fill="#676766"/><path d="M469.9,546.6v7.16c0,1.45,1.19,2.64,2.64,2.64h104.52c1.45,0,2.64-1.19,2.64-2.64v-7.16h-109.8Z" fill="#d1d0d1"/><path d="M579.7,479.29c0-1.45-1.19-2.64-2.64-2.64h-104.52c-1.45,0-2.64,1.19-2.64,2.64v67.31h109.8v-67.31Z" fill="#535252"/><rect x="471.97" y="478.9" width="105.61" height="64.86" rx="1.51" ry="1.51" fill="#819bff"/><polygon points="511.02 567.9 537.95 567.9 542.69 569.02 506.28 569.05 511.02 567.9" fill="#d1d0d1"/><polygon points="542.44 571.22 506.52 571.22 506.29 569.05 542.69 569.02 542.44 571.22" fill="#858585"/><path d="M526.37,551.82c0,1.04-.85,1.89-1.89,1.89s-1.89-.85-1.89-1.89,.85-1.89,1.89-1.89,1.89,.85,1.89,1.89Z" fill="#1f1f1f"/><g><g><rect x="476.16" y="482.95" width="97.69" height="56.87" fill="#333"/><polygon points="476.1 482.9 476.1 536.6 547.45 482.9 476.1 482.9" fill="#f4f4f4" opacity=".3"/></g><rect x="475.52" y="482.56" width="99.07" height="58.95" rx="1.78" ry="1.78" fill="#d0daff"/><path d="M572.8,481.54h-95.5c-.98,0-1.78,.61-1.78,2.05v3.03h99.07v-3.03c0-1.43-.8-2.05-1.78-2.05Z" fill="#f4f4f4"/><rect x="475.52" y="486.62" width="99.07" height=".72" fill="#cacaca"/><circle cx="478.66" cy="484" r="1.05" fill="#ff321d"/><circle cx="481.93" cy="484" r="1.05" fill="#ffbc00"/><circle cx="485.55" cy="484" r="1.05" fill="#54cc4e"/><rect x="503.82" y="482.62" width="48.37" height="2.76" rx="1.05" ry="1.05" fill="#cacaca"/></g><g><polygon points="534.55 478.9 474.83 543.78 494.09 543.78 554.58 478.9 534.55 478.9" fill="#fff" opacity=".3"/><polygon points="563.41 478.9 503.04 543.78 513.61 543.78 573.66 478.9 563.41 478.9" fill="#fff" opacity=".3"/></g></g><g><path d="M332.43,204.59l-1.12,1.23-7.85-7.16c-.3-.27-.55-.51-.77-.71-.21-.2-.4-.38-.58-.55-.17-.17-.34-.35-.52-.54,.02,.3,.02,.58,.01,.81-.01,.24-.02,.54-.04,.89l-.14,2.19-1.46-.12,.42-5.11,.95-1.04,11.08,10.1Z" fill="#b0c1ff"/><path d="M336.53,187.33c.67,.61,1.28,1.26,1.83,1.93,.55,.67,1,1.38,1.35,2.1,.34,.73,.55,1.47,.61,2.23s-.05,1.54-.34,2.33c-.29,.79-.8,1.59-1.54,2.39-.2,.22-.44,.45-.72,.71-.28,.25-.53,.44-.74,.57l-1.09-1c.24-.13,.49-.3,.76-.52,.27-.22,.51-.45,.73-.69,.86-.95,1.33-1.87,1.42-2.78,.09-.91-.11-1.8-.59-2.68-.48-.88-1.15-1.73-1.99-2.55l-.08,.09c.1,.37,.15,.78,.13,1.21-.02,.43-.13,.88-.32,1.34-.19,.46-.5,.92-.93,1.39-.58,.64-1.23,1.08-1.92,1.32-.7,.24-1.42,.26-2.16,.07-.74-.19-1.47-.61-2.17-1.25-.76-.7-1.29-1.44-1.58-2.24-.29-.8-.35-1.6-.18-2.4,.18-.8,.59-1.56,1.24-2.27,.5-.54,1.06-.95,1.68-1.22,.62-.27,1.29-.38,2.01-.34,.72,.04,1.46,.24,2.24,.61,.77,.37,1.56,.92,2.37,1.65Zm-7.22,.27c-.61,.67-.89,1.42-.83,2.23,.06,.82,.53,1.63,1.42,2.44,.73,.67,1.47,1.02,2.22,1.04,.75,.03,1.47-.33,2.15-1.08,.47-.51,.77-1.06,.91-1.62s.14-1.1,0-1.59c-.13-.5-.37-.89-.7-1.2-.33-.3-.72-.56-1.15-.78s-.89-.35-1.36-.42c-.47-.06-.94-.02-1.4,.12-.46,.14-.88,.43-1.26,.84Z" fill="#b0c1ff"/><path d="M350.97,184.28l-6.62,7.26-1.05-.96-.3-5.71c-.05-1.06-.13-1.97-.22-2.74-.09-.77-.26-1.45-.5-2.03-.24-.58-.62-1.1-1.12-1.56-.63-.57-1.27-.82-1.94-.75-.67,.07-1.28,.41-1.83,1.01-.48,.53-.82,1.08-1.01,1.66-.19,.58-.32,1.23-.38,1.96l-1.46-.1c.02-.52,.09-1.04,.22-1.56,.12-.52,.31-1.03,.56-1.53,.25-.5,.58-.97,.99-1.42,.62-.68,1.28-1.16,1.97-1.44,.69-.28,1.38-.35,2.06-.22s1.33,.47,1.94,1.02c.59,.54,1.03,1.15,1.32,1.84s.49,1.47,.6,2.34c.11,.87,.18,1.83,.22,2.9l.2,4.6,.05,.05,5.16-5.66,1.15,1.05Z" fill="#b0c1ff"/><path d="M351.99,181.57c-.35-.32-.53-.64-.52-.95,0-.31,.12-.58,.35-.83,.23-.26,.51-.41,.82-.45s.64,.1,1,.42c.35,.32,.52,.64,.52,.96,0,.32-.12,.61-.35,.87-.23,.25-.5,.38-.81,.41-.31,.03-.65-.12-1-.44Z" fill="#b0c1ff"/><path d="M360.43,173.91l-1.12,1.23-7.85-7.16c-.3-.27-.55-.51-.77-.71-.21-.2-.4-.38-.58-.55-.17-.17-.35-.35-.52-.53,.02,.3,.02,.58,.01,.82-.01,.24-.02,.54-.04,.89l-.14,2.19-1.46-.12,.42-5.11,.95-1.04,11.08,10.1Z" fill="#b0c1ff"/><path d="M359.62,165.28c-.67-.61-1.28-1.25-1.83-1.92-.55-.67-1-1.37-1.34-2.09-.34-.72-.55-1.46-.61-2.22s.05-1.54,.34-2.32c.29-.79,.8-1.58,1.53-2.38,.21-.23,.44-.46,.71-.7,.26-.24,.5-.43,.7-.55l1.08,.99c-.24,.13-.48,.3-.73,.51-.25,.21-.48,.44-.71,.68-.86,.94-1.33,1.86-1.41,2.78-.08,.91,.12,1.8,.6,2.68,.48,.88,1.15,1.73,1.99,2.56l.08-.08c-.11-.39-.16-.79-.14-1.22,.02-.43,.12-.87,.32-1.33,.19-.46,.5-.91,.92-1.37,.59-.65,1.24-1.09,1.94-1.33s1.42-.27,2.17-.08,1.47,.61,2.18,1.26c.76,.7,1.29,1.44,1.59,2.23s.36,1.58,.18,2.38-.59,1.55-1.25,2.28c-.49,.54-1.05,.94-1.67,1.21-.62,.27-1.29,.38-2.01,.34-.71-.04-1.46-.24-2.24-.61-.78-.37-1.57-.92-2.38-1.66Zm7.23-.24c.63-.69,.91-1.44,.85-2.25-.06-.81-.54-1.63-1.43-2.44-.73-.66-1.47-1-2.23-1.02-.76-.02-1.48,.34-2.16,1.09-.46,.51-.76,1.04-.89,1.61-.13,.56-.13,1.1,0,1.59,.13,.5,.36,.89,.69,1.2,.33,.3,.72,.56,1.15,.78,.43,.21,.89,.36,1.37,.42,.48,.06,.94,.03,1.4-.12,.46-.15,.88-.43,1.25-.84Z" fill="#b0c1ff"/><path d="M364.44,146.94c.58-.64,1.21-1.12,1.86-1.43,.65-.31,1.3-.43,1.95-.35,.65,.08,1.26,.38,1.83,.9,.45,.41,.75,.87,.91,1.37,.16,.5,.21,1.03,.16,1.59-.05,.56-.16,1.12-.33,1.7,.65-.28,1.29-.48,1.91-.61,.62-.13,1.22-.14,1.79-.03,.57,.11,1.11,.4,1.62,.86,.62,.57,1.02,1.21,1.2,1.92,.18,.71,.14,1.45-.11,2.21-.25,.76-.71,1.51-1.37,2.23-.71,.78-1.44,1.34-2.17,1.67s-1.45,.44-2.15,.32c-.7-.12-1.36-.46-1.99-1.03-.51-.46-.85-.98-1.03-1.54-.18-.56-.24-1.14-.19-1.75s.18-1.21,.38-1.8c-.54,.18-1.08,.31-1.61,.38-.54,.07-1.06,.04-1.57-.1s-.99-.41-1.45-.83c-.56-.51-.91-1.09-1.04-1.73-.13-.64-.07-1.3,.18-1.99,.25-.69,.66-1.34,1.23-1.97Zm1.02,.96c-.54,.6-.85,1.21-.91,1.85-.06,.64,.18,1.2,.71,1.69,.38,.35,.79,.55,1.23,.61,.43,.06,.89,.01,1.37-.13,.48-.14,.98-.34,1.5-.59,.19-.53,.32-1.03,.4-1.51,.08-.47,.06-.92-.05-1.34-.11-.42-.35-.79-.73-1.14-.54-.49-1.12-.67-1.74-.56-.62,.12-1.22,.49-1.78,1.1Zm5.22,9.15c.57,.52,1.21,.74,1.94,.68,.73-.06,1.46-.5,2.2-1.31,.7-.77,1.06-1.53,1.07-2.28,.02-.75-.27-1.4-.87-1.94-.37-.34-.78-.54-1.24-.6-.46-.06-.96-.02-1.5,.13-.54,.15-1.13,.38-1.75,.7l-.35,.18c-.23,.64-.38,1.23-.44,1.77-.06,.54-.02,1.03,.12,1.47,.14,.44,.41,.85,.8,1.21Z" fill="#b0c1ff"/><path d="M379.98,150.89c-.35-.32-.53-.64-.52-.95,0-.31,.12-.58,.35-.83,.24-.26,.51-.41,.82-.45,.31-.04,.64,.1,1,.42,.35,.32,.52,.64,.52,.96,0,.32-.12,.61-.36,.87-.23,.25-.5,.38-.81,.41s-.65-.12-1-.44Z" fill="#b0c1ff"/><path d="M388.42,143.22l-1.12,1.23-7.85-7.16c-.3-.27-.55-.51-.77-.71-.21-.2-.4-.38-.58-.55-.17-.17-.34-.35-.52-.54,.02,.3,.02,.58,.01,.82-.01,.24-.03,.54-.04,.89l-.14,2.19-1.46-.12,.42-5.11,.95-1.05,11.08,10.1Z" fill="#b0c1ff"/><path d="M391.8,137.94c-.35-.32-.53-.64-.52-.94,0-.31,.12-.58,.35-.83,.23-.26,.51-.41,.82-.45,.31-.04,.64,.1,1,.42,.35,.32,.52,.64,.52,.96,0,.32-.12,.61-.35,.87-.23,.25-.5,.38-.81,.41-.31,.03-.65-.12-1-.44Z" fill="#b0c1ff"/><path d="M400.52,124.8l-1.51,1.66,2.57,2.34-1.12,1.23-2.57-2.34-4.89,5.36-1.06-.97-2.7-12.12,1.2-1.31,7.43,6.78,1.51-1.66,1.14,1.04Zm-3.77,1.85l-3.62-3.3c-.28-.25-.53-.48-.75-.69s-.42-.41-.61-.6c-.18-.19-.36-.37-.53-.54-.17-.17-.34-.33-.5-.5l-.06,.06c.11,.28,.23,.58,.34,.91,.11,.33,.2,.64,.26,.92l1.72,7.83,3.75-4.11Z" fill="#b0c1ff"/><path d="M410.67,118.82l-6.62,7.26-1.05-.96-.3-5.71c-.05-1.06-.13-1.97-.22-2.75s-.26-1.45-.5-2.03c-.24-.58-.62-1.1-1.12-1.56-.63-.57-1.27-.82-1.94-.75-.67,.07-1.28,.41-1.83,1.01-.48,.53-.82,1.08-1.01,1.66-.19,.58-.32,1.23-.38,1.96l-1.46-.1c.02-.52,.09-1.04,.22-1.56,.12-.52,.31-1.03,.56-1.53,.25-.5,.58-.97,.99-1.42,.62-.68,1.28-1.16,1.97-1.44,.69-.28,1.38-.35,2.06-.22,.69,.13,1.33,.47,1.94,1.02,.59,.54,1.03,1.15,1.32,1.84,.29,.69,.49,1.47,.6,2.34,.11,.87,.18,1.83,.22,2.9l.2,4.6,.05,.05,5.16-5.66,1.15,1.05Z" fill="#b0c1ff"/></g><g><path d="M332.04,254.06h-1.66v-10.62c0-.4,0-.75,0-1.04,0-.29,.01-.56,.02-.8,.01-.24,.03-.49,.05-.74-.21,.22-.41,.41-.59,.56-.18,.15-.41,.34-.69,.57l-1.71,1.37-.89-1.16,4.06-3.13h1.42v14.99Z" fill="#b0c1ff"/><path d="M347.56,245.46c0,.91-.06,1.79-.19,2.66s-.34,1.67-.65,2.41-.72,1.4-1.24,1.96-1.17,1-1.95,1.32c-.78,.32-1.72,.48-2.8,.48-.29,0-.63-.02-1-.06-.38-.04-.68-.09-.92-.16v-1.48c.25,.09,.55,.16,.89,.21,.34,.05,.68,.08,1,.08,1.28,0,2.28-.28,3.01-.83,.73-.55,1.26-1.3,1.58-2.25,.32-.95,.5-2.01,.54-3.19h-.12c-.21,.33-.47,.63-.8,.91-.33,.28-.73,.5-1.2,.67-.47,.17-1.02,.25-1.65,.25-.87,0-1.63-.18-2.27-.53s-1.15-.87-1.51-1.55-.54-1.49-.54-2.45c0-1.03,.2-1.93,.59-2.68,.39-.76,.95-1.34,1.66-1.75s1.55-.62,2.51-.62c.74,0,1.42,.14,2.03,.42s1.15,.7,1.6,1.26c.45,.56,.81,1.25,1.06,2.07s.37,1.77,.37,2.86Zm-5.07-5.16c-.91,0-1.65,.3-2.21,.89-.56,.6-.85,1.49-.85,2.69,0,.99,.24,1.77,.73,2.35s1.23,.86,2.25,.86c.7,0,1.3-.14,1.81-.42s.9-.64,1.18-1.07c.28-.43,.42-.87,.42-1.32s-.07-.91-.2-1.37-.34-.89-.61-1.29c-.27-.39-.62-.71-1.04-.95-.42-.24-.91-.36-1.48-.36Z" fill="#b0c1ff"/><path d="M359.54,254.06h-9.82v-1.43l4.01-4.07c.75-.75,1.37-1.42,1.88-2.01s.9-1.17,1.16-1.74c.27-.57,.4-1.2,.4-1.88,0-.85-.25-1.5-.75-1.94-.5-.45-1.16-.67-1.98-.67-.72,0-1.35,.12-1.91,.37s-1.12,.59-1.7,1.05l-.91-1.15c.4-.33,.83-.63,1.3-.89s.97-.46,1.51-.62,1.11-.23,1.72-.23c.92,0,1.72,.16,2.39,.48s1.19,.78,1.55,1.37,.55,1.3,.55,2.12-.16,1.53-.47,2.21c-.31,.68-.76,1.35-1.32,2.02-.57,.67-1.23,1.37-1.99,2.12l-3.26,3.25v.07h7.66v1.56Z" fill="#b0c1ff"/><path d="M362.23,253c0-.48,.12-.82,.35-1.02,.23-.2,.52-.3,.85-.3s.64,.1,.88,.3c.24,.2,.36,.54,.36,1.02s-.12,.82-.36,1.03c-.24,.22-.53,.32-.88,.32s-.62-.11-.85-.32c-.23-.21-.35-.56-.35-1.03Z" fill="#b0c1ff"/><path d="M373.58,254.06h-1.66v-10.62c0-.4,0-.75,0-1.04,0-.29,.01-.56,.02-.8,.01-.24,.03-.49,.05-.74-.21,.22-.41,.41-.59,.56-.18,.15-.41,.34-.69,.57l-1.71,1.37-.89-1.16,4.06-3.13h1.42v14.99Z" fill="#b0c1ff"/><path d="M379.41,247.66c0-.9,.06-1.79,.19-2.65s.34-1.66,.64-2.4c.3-.74,.71-1.39,1.23-1.95s1.17-1,1.94-1.32c.78-.32,1.71-.48,2.79-.48,.31,0,.64,.02,.99,.05,.36,.03,.65,.08,.88,.15v1.47c-.25-.09-.54-.15-.87-.2s-.65-.06-.98-.06c-1.27,0-2.27,.28-3,.83-.73,.55-1.25,1.3-1.57,2.25-.32,.95-.51,2.01-.55,3.19h.11c.21-.34,.48-.65,.81-.93,.33-.28,.73-.5,1.19-.66s1.01-.25,1.64-.25c.88,0,1.64,.18,2.29,.53s1.16,.87,1.52,1.55,.54,1.5,.54,2.46c0,1.03-.19,1.92-.57,2.68s-.93,1.33-1.64,1.74c-.71,.41-1.55,.61-2.53,.61-.73,0-1.4-.14-2.02-.42-.62-.28-1.15-.7-1.6-1.25-.45-.55-.81-1.24-1.06-2.07-.25-.82-.38-1.78-.38-2.88Zm5.04,5.18c.93,0,1.67-.3,2.24-.89,.56-.59,.84-1.49,.84-2.7,0-.98-.25-1.76-.75-2.34s-1.25-.86-2.26-.86c-.68,0-1.28,.14-1.78,.43-.51,.28-.9,.64-1.18,1.07s-.42,.87-.42,1.31,.07,.91,.2,1.37,.34,.9,.61,1.29,.62,.71,1.04,.95c.42,.24,.91,.36,1.47,.36Z" fill="#b0c1ff"/><path d="M396.21,238.86c.87,0,1.64,.14,2.31,.41,.67,.27,1.19,.68,1.57,1.21,.38,.53,.57,1.18,.57,1.95,0,.61-.13,1.14-.39,1.59-.26,.46-.62,.85-1.06,1.19-.44,.34-.94,.64-1.48,.91,.64,.29,1.22,.63,1.74,1s.92,.8,1.23,1.3c.3,.5,.45,1.09,.45,1.77,0,.84-.2,1.57-.61,2.18-.41,.61-.98,1.08-1.71,1.41s-1.59,.49-2.57,.49c-1.06,0-1.96-.16-2.7-.48-.74-.32-1.31-.78-1.69-1.37-.39-.6-.58-1.32-.58-2.16,0-.69,.15-1.29,.44-1.8,.29-.51,.68-.95,1.17-1.32s1.02-.68,1.59-.93c-.5-.27-.96-.58-1.37-.93-.41-.35-.74-.76-.98-1.23-.24-.47-.36-1.01-.36-1.64,0-.76,.19-1.4,.58-1.93,.39-.53,.92-.93,1.59-1.21,.67-.28,1.43-.42,2.28-.42Zm-3.26,11.41c0,.77,.27,1.4,.81,1.89,.54,.5,1.36,.74,2.45,.74s1.84-.25,2.41-.74c.57-.5,.85-1.15,.85-1.95,0-.5-.13-.94-.39-1.32-.26-.38-.63-.72-1.11-1.02s-1.04-.57-1.69-.82l-.37-.13c-.63,.26-1.16,.55-1.6,.87-.44,.32-.78,.68-1.01,1.08-.23,.4-.35,.87-.35,1.41Zm3.24-10.02c-.81,0-1.47,.19-1.98,.58-.51,.39-.77,.94-.77,1.67,0,.52,.12,.96,.37,1.32,.25,.36,.59,.67,1.02,.92,.43,.26,.91,.49,1.45,.71,.52-.22,.98-.46,1.38-.72,.4-.26,.72-.58,.95-.94s.35-.8,.35-1.3c0-.72-.25-1.28-.76-1.66-.51-.38-1.18-.57-2.01-.57Z" fill="#b0c1ff"/><path d="M403.77,253c0-.48,.12-.82,.35-1.02,.23-.2,.52-.3,.85-.3s.64,.1,.88,.3c.24,.2,.36,.54,.36,1.02s-.12,.82-.36,1.03c-.24,.22-.53,.32-.88,.32s-.62-.11-.85-.32c-.23-.21-.35-.56-.35-1.03Z" fill="#b0c1ff"/><path d="M415.12,254.06h-1.66v-10.62c0-.4,0-.75,0-1.04,0-.29,.01-.56,.02-.8,.01-.24,.03-.49,.05-.74-.21,.22-.41,.41-.59,.56-.18,.15-.41,.34-.69,.57l-1.71,1.37-.89-1.16,4.06-3.13h1.42v14.99Z" fill="#b0c1ff"/><path d="M421.29,253c0-.48,.12-.82,.35-1.02,.23-.2,.52-.3,.85-.3s.64,.1,.88,.3c.24,.2,.36,.54,.36,1.02s-.12,.82-.36,1.03c-.24,.22-.53,.32-.88,.32s-.62-.11-.85-.32c-.23-.21-.35-.56-.35-1.03Z" fill="#b0c1ff"/><path d="M431.04,244.9c1.02,0,1.9,.17,2.66,.52,.75,.35,1.33,.85,1.75,1.5s.62,1.45,.62,2.39c0,1.03-.22,1.91-.67,2.65-.44,.74-1.08,1.31-1.92,1.71-.83,.4-1.83,.6-2.99,.6-.78,0-1.5-.07-2.17-.21s-1.23-.34-1.69-.62v-1.62c.5,.3,1.1,.54,1.81,.72s1.4,.27,2.07,.27c.76,0,1.42-.12,1.99-.36,.57-.24,1.02-.61,1.33-1.11,.32-.5,.48-1.12,.48-1.87,0-1-.31-1.77-.92-2.31-.61-.54-1.58-.81-2.9-.81-.42,0-.89,.03-1.39,.1-.51,.07-.92,.14-1.25,.23l-.86-.56,.57-7.03h7.45v1.56h-6l-.38,4.52c.26-.05,.59-.11,1-.17,.41-.06,.88-.09,1.39-.09Z" fill="#b0c1ff"/><path d="M444.65,254.06h-1.66v-10.62c0-.4,0-.75,0-1.04,0-.29,.01-.56,.02-.8,.01-.24,.03-.49,.05-.74-.21,.22-.41,.41-.59,.56-.18,.15-.41,.34-.69,.57l-1.71,1.37-.89-1.16,4.06-3.13h1.42v14.99Z" fill="#b0c1ff"/></g><g><path d="M349.5,314l-1.04-1.29,8.26-6.68c.31-.25,.58-.47,.81-.65,.23-.18,.44-.34,.64-.49,.19-.14,.4-.29,.61-.43-.3-.03-.57-.06-.81-.11-.24-.05-.53-.11-.88-.18l-2.14-.47,.34-1.42,4.99,1.19,.89,1.1-11.66,9.42Z" fill="#b0c1ff"/><path d="M365.94,320.66c-.71,.57-1.44,1.08-2.19,1.52s-1.51,.78-2.28,1.01c-.77,.23-1.54,.32-2.3,.27-.76-.05-1.51-.28-2.25-.69-.74-.41-1.45-1.04-2.13-1.88-.19-.23-.38-.5-.59-.82-.21-.32-.36-.59-.46-.82l1.15-.93c.09,.25,.22,.53,.4,.83,.17,.3,.37,.58,.57,.83,.8,.99,1.65,1.6,2.54,1.83,.89,.22,1.8,.16,2.74-.18,.94-.34,1.88-.87,2.83-1.58l-.08-.1c-.38,.05-.79,.03-1.21-.06-.42-.08-.85-.26-1.27-.52-.43-.26-.84-.64-1.23-1.13-.55-.67-.88-1.38-1.01-2.1-.13-.73-.04-1.44,.26-2.15,.3-.71,.82-1.36,1.57-1.96,.8-.65,1.62-1.06,2.46-1.23,.83-.17,1.64-.11,2.4,.19,.77,.29,1.45,.82,2.06,1.57,.46,.57,.78,1.19,.95,1.84s.18,1.33,.03,2.04c-.15,.7-.46,1.41-.94,2.12-.48,.71-1.14,1.41-1.99,2.09Zm.83-7.18c-.57-.71-1.27-1.09-2.08-1.16-.82-.06-1.69,.28-2.62,1.03-.77,.62-1.23,1.3-1.37,2.04-.14,.74,.11,1.5,.74,2.29,.44,.54,.93,.92,1.46,1.14,.54,.22,1.06,.3,1.57,.25,.51-.06,.94-.22,1.29-.51,.35-.28,.67-.62,.94-1.02s.48-.82,.62-1.28c.13-.46,.16-.93,.09-1.4-.07-.48-.29-.94-.64-1.38Z" fill="#b0c1ff"/><path d="M366.79,335.39l-6.17-7.64,1.11-.9,5.69,.56c1.05,.11,1.97,.17,2.75,.2s1.47-.04,2.08-.19c.61-.15,1.18-.44,1.71-.87,.66-.53,1.01-1.14,1.04-1.81,.03-.67-.21-1.33-.72-1.97-.45-.56-.95-.97-1.49-1.25-.54-.28-1.17-.5-1.88-.67l.32-1.43c.51,.1,1.01,.25,1.51,.45,.5,.2,.97,.46,1.43,.79,.45,.32,.87,.72,1.26,1.19,.58,.72,.96,1.44,1.13,2.16,.17,.72,.14,1.41-.09,2.07-.23,.66-.67,1.25-1.31,1.76-.62,.5-1.29,.84-2.02,1.02-.73,.18-1.53,.26-2.4,.24-.87-.02-1.84-.1-2.9-.22l-4.58-.49-.06,.04,4.81,5.96-1.21,.98Z" fill="#b0c1ff"/><path d="M369.3,336.81c.37-.3,.71-.42,1.01-.37,.3,.05,.56,.21,.77,.47,.22,.27,.33,.56,.32,.88,0,.31-.2,.62-.57,.92-.37,.3-.71,.42-1.03,.37-.32-.05-.59-.21-.81-.48-.21-.26-.3-.55-.28-.86,.02-.32,.21-.62,.58-.92Z" fill="#b0c1ff"/><path d="M375.61,346.31l-1.04-1.29,8.26-6.68c.31-.25,.59-.47,.81-.65,.23-.18,.44-.34,.63-.49,.2-.14,.4-.29,.61-.43-.3-.03-.57-.06-.81-.11-.24-.05-.53-.11-.88-.18l-2.14-.47,.34-1.42,4.99,1.19,.89,1.1-11.66,9.42Z" fill="#b0c1ff"/><path d="M384.25,346.81c.7-.57,1.43-1.07,2.18-1.52,.75-.44,1.51-.78,2.27-1.01,.77-.23,1.53-.32,2.29-.27,.76,.05,1.51,.28,2.25,.68,.74,.4,1.44,1.03,2.13,1.87,.19,.24,.39,.51,.59,.8,.2,.3,.35,.56,.44,.78l-1.14,.92c-.09-.25-.22-.52-.39-.8-.17-.28-.36-.54-.57-.8-.8-.99-1.64-1.59-2.53-1.81-.89-.22-1.8-.15-2.74,.19-.94,.35-1.88,.87-2.83,1.58l.07,.09c.4-.05,.81-.03,1.23,.05,.42,.08,.84,.25,1.27,.51,.42,.26,.83,.63,1.22,1.12,.55,.68,.89,1.39,1.03,2.12,.13,.73,.05,1.45-.25,2.15-.3,.7-.83,1.36-1.58,1.96-.8,.65-1.62,1.06-2.44,1.24-.83,.17-1.62,.11-2.38-.18-.76-.29-1.45-.82-2.06-1.58-.46-.57-.77-1.18-.94-1.83s-.18-1.33-.04-2.04c.14-.7,.46-1.41,.94-2.12,.48-.71,1.15-1.42,2-2.1Zm-.86,7.18c.58,.72,1.28,1.12,2.1,1.18,.81,.06,1.69-.29,2.62-1.04,.77-.62,1.22-1.3,1.35-2.05,.13-.75-.12-1.51-.75-2.3-.43-.53-.91-.91-1.45-1.12-.54-.22-1.06-.3-1.57-.24-.51,.05-.94,.22-1.29,.5-.35,.28-.67,.62-.94,1.02-.28,.4-.48,.83-.62,1.29s-.17,.93-.09,1.4c.08,.48,.29,.93,.64,1.37Z" fill="#b0c1ff"/><path d="M401.66,354.35c.55,.67,.92,1.36,1.13,2.05,.21,.69,.23,1.35,.05,1.98-.17,.63-.56,1.19-1.16,1.67-.47,.38-.97,.62-1.49,.7-.52,.08-1.05,.06-1.59-.08-.54-.13-1.09-.33-1.63-.58,.17,.68,.28,1.34,.32,1.98,.04,.63-.04,1.22-.24,1.77-.2,.55-.57,1.04-1.1,1.47-.65,.53-1.35,.83-2.08,.89-.73,.07-1.46-.08-2.17-.44-.71-.36-1.38-.93-2-1.69-.67-.82-1.11-1.62-1.33-2.4-.22-.78-.22-1.5,0-2.18,.22-.68,.66-1.28,1.32-1.81,.54-.43,1.1-.7,1.68-.79,.58-.09,1.17-.07,1.76,.08s1.17,.36,1.72,.65c-.1-.56-.15-1.11-.13-1.65,.01-.54,.12-1.05,.33-1.54,.21-.48,.56-.92,1.04-1.31,.59-.48,1.21-.73,1.87-.76,.66-.03,1.3,.13,1.94,.48,.64,.35,1.22,.85,1.76,1.51Zm-10.93,4.64c-.59,.48-.92,1.09-.96,1.82-.05,.73,.27,1.52,.96,2.37,.65,.81,1.35,1.28,2.09,1.41,.74,.13,1.43-.06,2.05-.57,.39-.31,.65-.69,.78-1.13,.13-.44,.16-.94,.1-1.5-.07-.56-.21-1.17-.42-1.83l-.13-.37c-.6-.33-1.16-.56-1.68-.7-.52-.14-1.02-.18-1.48-.11-.46,.07-.9,.28-1.31,.61Zm9.83-3.78c-.51-.63-1.07-1.02-1.7-1.17-.62-.16-1.22,0-1.78,.45-.4,.33-.67,.7-.79,1.12-.12,.42-.15,.88-.08,1.37,.07,.5,.19,1.02,.35,1.57,.5,.27,.97,.47,1.43,.62,.46,.15,.9,.2,1.33,.15,.43-.05,.84-.23,1.23-.55,.56-.46,.83-1,.81-1.64-.02-.64-.29-1.28-.82-1.93Z" fill="#b0c1ff"/><path d="M395.41,369.12c.37-.3,.71-.42,1.01-.37,.3,.05,.56,.21,.77,.47,.22,.27,.33,.56,.32,.88,0,.31-.2,.62-.57,.92-.37,.3-.71,.42-1.03,.37-.32-.05-.59-.21-.81-.48-.21-.26-.3-.55-.28-.87,.02-.32,.21-.62,.58-.92Z" fill="#b0c1ff"/><path d="M401.72,378.62l-1.04-1.29,8.26-6.68c.31-.25,.58-.47,.81-.65,.23-.18,.44-.34,.64-.49,.19-.14,.4-.29,.61-.43-.3-.03-.57-.06-.81-.11-.24-.05-.53-.11-.88-.18l-2.14-.47,.34-1.42,4.99,1.19,.89,1.1-11.66,9.42Z" fill="#b0c1ff"/><path d="M406.43,382.75c.37-.3,.71-.42,1.01-.37,.3,.05,.56,.21,.77,.47,.22,.27,.33,.56,.32,.88,0,.31-.2,.62-.57,.92-.37,.3-.71,.42-1.03,.37-.32-.05-.59-.21-.81-.48-.21-.26-.3-.55-.28-.87,.02-.32,.21-.62,.58-.92Z" fill="#b0c1ff"/><path d="M418.1,393.36l-1.41-1.75-2.7,2.19-1.04-1.29,2.7-2.18-4.56-5.64,1.12-.9,12.39-.84,1.12,1.38-7.82,6.32,1.41,1.75-1.2,.97Zm-1.26-4l3.81-3.08c.29-.24,.56-.45,.8-.63,.24-.19,.47-.36,.68-.51,.21-.15,.42-.3,.61-.45,.19-.14,.38-.28,.57-.42l-.05-.06c-.29,.07-.61,.14-.95,.2-.34,.06-.66,.1-.95,.12l-8,.52,3.49,4.32Z" fill="#b0c1ff"/></g></g></g></svg>